<<<<<<< Updated upstream
<mxfile host="app.diagrams.net" modified="2021-10-23T17:35:05.703Z" agent="5.0 (X11; Linux x86_64) AppleWebKit/537.36 (KHTML, like Gecko) Chrome/93.0.4577.82 Safari/537.36" etag="f6pVYG2HzcEdhDZ4xyW_" version="15.5.8" type="github">
  <diagram name="Page-1" id="90a13364-a465-7bf4-72fc-28e22215d7a0">
    <mxGraphModel dx="1422" dy="778" grid="1" gridSize="10" guides="1" tooltips="1" connect="1" arrows="1" fold="1" page="1" pageScale="1.5" pageWidth="1169" pageHeight="826" background="none" math="0" shadow="0">
      <root>
        <mxCell id="0" style=";html=1;" />
        <mxCell id="1" style=";html=1;" parent="0" />
        <mxCell id="3a17f1ce550125da-1" value="Software Control" style="whiteSpace=wrap;html=1;shadow=1;fontSize=20;fillColor=#f5f5f5;strokeColor=#666666;strokeWidth=2;dashed=1;" parent="1" vertex="1">
          <mxGeometry x="797" y="344" width="150" height="60" as="geometry" />
        </mxCell>
        <mxCell id="3a17f1ce550125da-13" style="edgeStyle=elbowEdgeStyle;rounded=0;html=1;startArrow=none;startFill=0;jettySize=auto;orthogonalLoop=1;fontSize=18;elbow=vertical;" parent="1" source="3a17f1ce550125da-2" target="3a17f1ce550125da-4" edge="1">
          <mxGeometry relative="1" as="geometry" />
        </mxCell>
        <mxCell id="3a17f1ce550125da-14" style="edgeStyle=elbowEdgeStyle;rounded=0;html=1;startArrow=none;startFill=0;jettySize=auto;orthogonalLoop=1;fontSize=18;elbow=vertical;" parent="1" source="3a17f1ce550125da-2" target="3a17f1ce550125da-5" edge="1">
          <mxGeometry relative="1" as="geometry" />
        </mxCell>
        <mxCell id="3a17f1ce550125da-15" style="edgeStyle=elbowEdgeStyle;rounded=0;html=1;startArrow=none;startFill=0;jettySize=auto;orthogonalLoop=1;fontSize=18;elbow=vertical;" parent="1" source="3a17f1ce550125da-2" target="3a17f1ce550125da-6" edge="1">
          <mxGeometry relative="1" as="geometry" />
        </mxCell>
        <mxCell id="3a17f1ce550125da-17" style="edgeStyle=elbowEdgeStyle;rounded=0;html=1;startArrow=none;startFill=0;jettySize=auto;orthogonalLoop=1;fontSize=18;" parent="1" source="3a17f1ce550125da-10" target="3a17f1ce550125da-2" edge="1">
          <mxGeometry relative="1" as="geometry">
            <Array as="points">
              <mxPoint x="907" y="754" />
            </Array>
          </mxGeometry>
        </mxCell>
        <mxCell id="3a17f1ce550125da-2" value="Testduino&lt;br&gt;nucleo Arduino" style="whiteSpace=wrap;html=1;shadow=1;fontSize=18;fillColor=#f5f5f5;strokeColor=#666666;" parent="1" vertex="1">
          <mxGeometry x="788" y="454" width="170" height="280" as="geometry" />
        </mxCell>
        <mxCell id="3a17f1ce550125da-4" value="Voltaje sensor" style="whiteSpace=wrap;html=1;shadow=1;fontSize=18;fillColor=#f5f5f5;strokeColor=#666666;" parent="1" vertex="1">
          <mxGeometry x="1037" y="444" width="120" height="60" as="geometry" />
        </mxCell>
        <mxCell id="3a17f1ce550125da-5" value="Amper Sensor" style="whiteSpace=wrap;html=1;shadow=1;fontSize=18;fillColor=#f5f5f5;strokeColor=#666666;" parent="1" vertex="1">
          <mxGeometry x="1037" y="524" width="120" height="60" as="geometry" />
        </mxCell>
        <mxCell id="3a17f1ce550125da-6" value="Presion Sensor" style="whiteSpace=wrap;html=1;shadow=1;fontSize=18;fillColor=#f5f5f5;strokeColor=#666666;" parent="1" vertex="1">
          <mxGeometry x="1037" y="604" width="120" height="60" as="geometry" />
        </mxCell>
        <mxCell id="3a17f1ce550125da-20" style="edgeStyle=elbowEdgeStyle;rounded=0;html=1;startArrow=none;startFill=0;jettySize=auto;orthogonalLoop=1;fontSize=18;elbow=vertical;" parent="1" source="3a17f1ce550125da-8" target="3a17f1ce550125da-2" edge="1">
          <mxGeometry relative="1" as="geometry">
            <Array as="points">
              <mxPoint x="757" y="514" />
            </Array>
          </mxGeometry>
        </mxCell>
        <mxCell id="3a17f1ce550125da-8" value="Vector Signal Generator" style="whiteSpace=wrap;html=1;shadow=1;fontSize=18;fillColor=#f5f5f5;strokeColor=#666666;" parent="1" vertex="1">
          <mxGeometry x="597" y="444" width="120" height="150" as="geometry" />
        </mxCell>
        <mxCell id="3a17f1ce550125da-21" style="edgeStyle=elbowEdgeStyle;rounded=0;html=1;startArrow=none;startFill=0;jettySize=auto;orthogonalLoop=1;fontSize=18;elbow=vertical;" parent="1" source="3a17f1ce550125da-9" target="3a17f1ce550125da-2" edge="1">
          <mxGeometry relative="1" as="geometry" />
        </mxCell>
        <mxCell id="3a17f1ce550125da-9" value="ARB / Mod Source" style="whiteSpace=wrap;html=1;shadow=1;fontSize=18;fillColor=#f5f5f5;strokeColor=#666666;" parent="1" vertex="1">
          <mxGeometry x="597" y="634" width="120" height="60" as="geometry" />
        </mxCell>
        <mxCell id="3a17f1ce550125da-10" value="DUT" style="whiteSpace=wrap;html=1;shadow=1;fontSize=18;fillColor=#f5f5f5;strokeColor=#666666;" parent="1" vertex="1">
          <mxGeometry x="799.5" y="774" width="145" height="120" as="geometry" />
        </mxCell>
        <mxCell id="3a17f1ce550125da-18" style="edgeStyle=elbowEdgeStyle;rounded=0;html=1;startArrow=none;startFill=0;jettySize=auto;orthogonalLoop=1;fontSize=18;elbow=vertical;" parent="1" source="3a17f1ce550125da-11" target="3a17f1ce550125da-10" edge="1">
          <mxGeometry relative="1" as="geometry" />
        </mxCell>
        <mxCell id="3a17f1ce550125da-11" value="DC Power Supplies" style="whiteSpace=wrap;html=1;shadow=1;fontSize=18;fillColor=#f5f5f5;strokeColor=#666666;" parent="1" vertex="1">
          <mxGeometry x="597" y="804" width="120" height="60" as="geometry" />
        </mxCell>
        <mxCell id="3a17f1ce550125da-22" style="edgeStyle=elbowEdgeStyle;rounded=0;html=1;startArrow=none;startFill=0;jettySize=auto;orthogonalLoop=1;fontSize=18;" parent="1" source="3a17f1ce550125da-10" target="3a17f1ce550125da-2" edge="1">
          <mxGeometry relative="1" as="geometry">
            <mxPoint x="937" y="784" as="sourcePoint" />
            <mxPoint x="937" y="744" as="targetPoint" />
            <Array as="points">
              <mxPoint x="927" y="754" />
              <mxPoint x="907" y="754" />
            </Array>
          </mxGeometry>
        </mxCell>
        <mxCell id="3a17f1ce550125da-23" style="edgeStyle=elbowEdgeStyle;rounded=0;html=1;startArrow=none;startFill=0;jettySize=auto;orthogonalLoop=1;fontSize=18;" parent="1" edge="1">
          <mxGeometry relative="1" as="geometry">
            <mxPoint x="887" y="774" as="sourcePoint" />
            <mxPoint x="887" y="734" as="targetPoint" />
            <Array as="points">
              <mxPoint x="887" y="754" />
              <mxPoint x="887" y="754" />
            </Array>
          </mxGeometry>
        </mxCell>
        <mxCell id="3a17f1ce550125da-24" style="edgeStyle=elbowEdgeStyle;rounded=0;html=1;startArrow=none;startFill=0;jettySize=auto;orthogonalLoop=1;fontSize=18;" parent="1" edge="1">
          <mxGeometry relative="1" as="geometry">
            <mxPoint x="857" y="734" as="sourcePoint" />
            <mxPoint x="857" y="774" as="targetPoint" />
            <Array as="points">
              <mxPoint x="857" y="754" />
              <mxPoint x="887" y="764" />
            </Array>
          </mxGeometry>
        </mxCell>
        <mxCell id="3a17f1ce550125da-25" style="edgeStyle=elbowEdgeStyle;rounded=0;html=1;startArrow=none;startFill=0;jettySize=auto;orthogonalLoop=1;fontSize=18;" parent="1" edge="1">
          <mxGeometry relative="1" as="geometry">
            <mxPoint x="837" y="734" as="sourcePoint" />
            <mxPoint x="837" y="774" as="targetPoint" />
            <Array as="points">
              <mxPoint x="837" y="754" />
              <mxPoint x="867" y="764" />
            </Array>
          </mxGeometry>
        </mxCell>
        <mxCell id="3a17f1ce550125da-26" style="edgeStyle=elbowEdgeStyle;rounded=0;html=1;startArrow=none;startFill=0;jettySize=auto;orthogonalLoop=1;fontSize=18;" parent="1" edge="1">
          <mxGeometry relative="1" as="geometry">
            <mxPoint x="817" y="734" as="sourcePoint" />
            <mxPoint x="817" y="774" as="targetPoint" />
            <Array as="points">
              <mxPoint x="817" y="754" />
              <mxPoint x="847" y="764" />
            </Array>
          </mxGeometry>
        </mxCell>
      </root>
    </mxGraphModel>
  </diagram>
</mxfile>
=======
<mxfile host="app.diagrams.net" modified="2021-10-25T02:37:15.261Z" agent="5.0 (X11; Linux x86_64) AppleWebKit/537.36 (KHTML, like Gecko) Chrome/93.0.4577.82 Safari/537.36" etag="YiAIQ6IQ5mr23KY2mo30" version="15.5.9" type="device"><diagram name="Page-1" id="90a13364-a465-7bf4-72fc-28e22215d7a0">7Vxtc6o4FP41fqxDAgH8qLW9d2ffnGn37t79spNiVG6RWIhV99dvkESBRLSKQledaQcOIYSc5zk55yShZd5Pl18iPJv8SockaEFjuGyZ/RaElmPx/4lglQog6qSCceQPUxHYCp78f4kQGkI694ckzhVklAbMn+WFHg1D4rGcDEcRXeSLjWiQf+oMj4kiePJwIKVttJX/6Q/ZRMiB3dle+Er88UQ83IV2euEFe6/jiM5D8cQWNB/BY/fhIb08xbIu8arxBA/pIiMyH1rmfUQpS4+my3sSJJ0rO07ex1aytS2zN2HTgJ8Afri+/LjjZnDIzfzlIhKy7ON21ff9t3FI596qi0L60+KPp5n/at0BW3kKGfL+Fac0YhM6piEOHrbS3rrLSFKtwc+2ZX6hdCYa94MwthJgwXNG803nLY5Wf/GTO6NtGEhKvic1th3XloL+UjwjPVtlzwYk8qeEkUgIY4Yj1k0AxQUhDclaFtFXck8DGq3fzbSQ0+v0+ZURDVlGDvomQg6XB/iFBL0NLjJFBDJ0/S41ReeRR8o62xH8wNGYiHtNDJwR8AhCBoBoiO9gWibRQqZ2odIvhPJ3jla8QEQCzPz3PDewINN4U24LCH4gMPEBfECrVnwYeWigPcA4i761aDsIBIpugap/ba87VWNgfSsnB15lCsyoH7I4U/MgEfACYmhAtqhRjAw2KBiYQnnHtk8q7ziogNe0xVv0bl79BECLvn3HwVz029fn58G6M9/mJGZ14J0PLLP1ldR81Wi3joasHFNrxqzF/QGIcrCyOuUw3H/LyUjc1asZED5z6A3nfkhbyTBuB7yvey8RPxonR93BQBWOIg6GO8K9lyJkFxOfkacZXmt1wd0+BW6pHwMEogQwYQLfkR8EGfh03X63f1+KyfSKdL0SL2WI48maD6AEsjvx+E4iRpalIJKqQ7aiOkc4XYuMK4iEbJLxAoWKTxoyVb2apeaDBC90sdtyZFWk9Wa47NFPWrMurrEpWtuT0TBwkwEtaQU/SfrZ5450swwOPMBHsurykVSFl/tHN4VXo3DUHIWjm8IvoPDKvYlDFd77evc6Xb51Jnd/f3t9nnm///z2rhmua/ESP0GE2zlAt6AxZIZlbljR3QrnXkAS96wbiRLVeF1rxn7c6zqjW+XCTtGtghq3ChpQdas2Sa/KUxFNIWFj7Kilck1rvWrLKO1qcUaF32jA8A+SvCoJY94x/1tSAcNxVVZZarACNcGKfS5SqRbwykmFPh2pkKLC7nRGOJOMpyuklInqppR5o5TWl/9ElLIVFQ4iEvs0vFJSWeYFSaXGC24pgW4hd8W02TFbI2cvBSZciQlZRWoDxF0FdX8sXV5mHTKcnOI3HofhJCJTAOJ7nKw55fvTdCGBPx3z53uBz/uQN/TxC8HRPwC6S/7XnoXjSvl4ikI/QFnoKlMY0NUEbDrKAvdcA+EtU1ZFSkWzZkAfHteWVtE2p3xdyU35FSvfbJTygRqT1OMDNz5hKjvmsgnT45aDmMog4zjVzpOXceCWpC0kaS1VHcaBSdrNhHj1zDcawvxGsVyOzfvteG0z26XtzmgTh2S6rp1eRc62YygkA3UnmMC1J21LXaBPxzE1X8hIksDFbB7hq0g4aUjWqZ1k6lzVNt/QUx0PRT9XloHomEUd2lbtGQig+o5cKyN/zJnlpencgHgpz/YqVC7SnS7HyUaa9stsGraHmGHZywMa+yyp1ex7vCuTteI9GVr+UijwQhmjU14AB/5Ye0dXXGCJOe7p2B4LRqM8zJJ2PUc4jEckel6tm+yHszlrGu8dpK67NVXIWBdlvduIofUc+2NIOGxMKHz0KnNwnp0RarLbULCJzALoduS7lbpcbtWh2dn83DzkLdjuQGPzKzQ17RHlIR+O3dUEsYX27M7Q0BNdINyXS8gyFLwKG03nrIFG2rYVFJioZiMNm5FjaLRB1aQVS9l2boOqWVJoFt2+Qw2qDZVdH8go1LXDbla2i0wNwW9GqjYjhTSpUE3wcVkj1YxlQE0yUifNcMnuO7uh0sxygAoNVRFwFTl4toYCe/Y97r/lTDtw1cnBW1DeFFPqADXw0awkuawpVYPyzZbteEbDmCiw2NrNdS70lTBvcooRlZ8jaBummY/Gbds5JhrfpcISpWdgIk25AP8oIEth5Xulqyw0Cx6Ot9xQs66zOXt9Spt82r7r5LMxV73tGnTU1MAlt13rl11XvD/oaMOhIVkGBJUQn491Q59sK8qui5LunhfgOPY9KRbLpcAOs3G8GZBpsRq+EHEaXg7IIsieShyKmNGI7Bj0M/o9u9ORDwlyCD0NW1mrU4WRkG5DyXQQcKD8elduQuhsroSlKv0qfM1mxu2acUS3hOmizqalDiO36KQpgIEXBQw/3X7bL41+t19QNB/+Aw==</diagram></mxfile>
>>>>>>> Stashed changes
